<?xml version="1.0" encoding="utf-8"?>
<!-- Generator: Adobe Illustrator 23.1.1, SVG Export Plug-In . SVG Version: 6.00 Build 0)  -->
<svg version="1.1" id="Layer_1" xmlns="http://www.w3.org/2000/svg" xmlns:xlink="http://www.w3.org/1999/xlink" x="0px" y="0px"
	 viewBox="0 0 1280 1024" style="enable-background:new 0 0 1280 1024;" xml:space="preserve">
<style type="text/css">
	.st0{fill:#444444;}
	.st1{fill:#163324;}
	.st2{fill:#FCDBA7;}
	.st3{fill:none;stroke:#000000;stroke-linecap:round;stroke-miterlimit:10;}
	.st4{fill:#8C6239;stroke:#000000;stroke-miterlimit:10;}
	.st5{fill:#FFFFCC;}
	.st6{fill:none;stroke:#42210B;stroke-width:0.9449;stroke-linecap:round;stroke-miterlimit:10;}
	.st7{fill:#754C24;}
	.st8{fill:#29ABE2;}
	.st9{fill:#289DC6;}
</style>
<path class="st0" d="M214.84,562.92c0,0-5.41,33.62-22.47,43.18c-17.06,9.55-20.99,13.81-19.73,17.16s37.73,5.24,45.99,3.99
	c8.25-1.25,9.94,0.14,10.59-2.79s4.6-70.67,4.6-70.67L214.84,562.92z"/>
<path d="M214.68,560c0,0-5.36,33.63-22.81,43.1c-17.45,9.47-21.45,13.71-20.14,17.07s38.73,5.46,47.19,4.25
	c8.46-1.21,10.2,0.2,10.84-2.73c0.65-2.93,4.32-70.73,4.32-70.73L214.68,560z"/>
<path class="st0" d="M308.47,568.02c0,0,1.95,34-12.66,47s-17.53,18-15.58,21s37.98-3,45.77-6s9.74-2,9.74-5s-10.71-70-10.71-70
	L308.47,568.02z"/>
<path d="M307.69,565.21c0,0,2,34-13,47s-18,18-16,21s39-3,47-6s10-2,10-5s-11-70-11-70L307.69,565.21z"/>
<path class="st1" d="M216.06,495.17c0,0-5.74,27.89-6.4,34.03s-2.45,27.77,6.77,33.55c9.22,5.78,20.65,3.75,24.6-2.51
	c3.95-6.26,21.63-57.12,21.63-57.12s-9.15,1.62-25.5-1.96C220.8,497.57,216.06,495.17,216.06,495.17z"/>
<path class="st1" d="M287.69,504.28c0,0,2.09,28.4,3.13,34.49c1.04,6.09,5.22,27.39,15.67,30.43c10.44,3.04,20.89-2.03,22.98-9.13
	c2.09-7.1,5.22-60.86,5.22-60.86s-8.36,4.06-25.07,5.07S287.69,504.28,287.69,504.28z"/>
<path class="st2" d="M228.19,244.71v25c0,0,2,10,2,14s-5,17-2,23s10,26,52,24s50-12,54-16s31-53,22-70s-79-42-79-42L228.19,244.71z"
	/>
<g>
	<ellipse cx="240.69" cy="279.71" rx="3.5" ry="9"/>
	<path d="M230.37,268.35l16.94,1.25c1.1,0.08,1.93,1.04,1.85,2.14l0,0c-0.08,1.1-1.04,1.93-2.14,1.85l-16.94-1.25
		c-1.1-0.08-1.93-1.04-1.85-2.14l0,0C228.31,269.1,229.27,268.27,230.37,268.35z"/>
</g>
<path d="M274.36,307.16h-24c-1.1,0-2,0.9-2,2l0,0c0,1.1,0.9,2,2,2h24c1.1,0,2-0.9,2-2l0,0
	C276.36,308.06,275.46,307.16,274.36,307.16z"/>
<path class="st3" d="M354.57,278.78c0.74,0.42,1.53,0.69,2.31,0.84c2.78,0.52,5.59-0.59,6.93-2.99c1.72-3.08,0.38-7.11-3-9
	c-1.69-0.95-3.57-1.18-5.24-0.79c-1.67,0.39-3.14,1.4-4,2.94"/>
<ellipse class="st2" cx="194.58" cy="450.47" rx="8.5" ry="11"/>
<path class="st4" d="M202.08,359.47c-7,3.89-18,12.63-17,42.74c1,30.11-6,44.69,6,45.66c12,0.97,15,4.86,15-32.06s4-56.34,0-56.34
	S202.08,359.47,202.08,359.47z"/>
<path class="st4" d="M244.89,382.56c0,0,2.51,17.18-0.28,35.55c-0.76,5.01-2.3,9.99-3.93,14.87c-7.61,22.8,17.11,27.75,24.72,28.75
	c7.61,0.99,40.88-1.98,44.68-3.96c3.8-1.98,2.85-64.43,0.95-70.38c-1.9-5.95,1.91-11.43-15.21-8.2
	c-17.12,3.24-22.77,3.52-37.05,3.38C244.48,382.43,245.31,382.7,244.89,382.56z"/>
<path class="st5" d="M267.74,403.72c0,0-2.73-5.55,3-17c3-6,18-8,30.5-10.5c15-3,27.08-13.29,31.5-15.5c8-4-2,6-2,6s11-4,10,0
	s-8,7-5,7s11,0,9,2s-8,3-6,5s10,7-4,6s-29-3-40,0c-11.66,3.18-19,9-23,13S267.74,403.72,267.74,403.72z"/>
<path class="st5" d="M226.74,392.72c4,1,12-7,23-1c11,6,18,13,18,13s1-9-4-15s-10-17-24-14s-15,4-14,5s7,0,7,1s-9,2-7,4s10-2,8,0
	S222.74,391.72,226.74,392.72z"/>
<path class="st6" d="M263.73,461.75c1.41-13.2,3.85-37.25,4.01-46.3c0.18-10.23,0-10.23,0-10.23"/>
<ellipse class="st2" cx="375.5" cy="443" rx="8.5" ry="11"/>
<path class="st4" d="M367.07,353.97c2.71-1.26,5.91-0.66,8.22,1.23c5.72,4.69,10.55,14.18,9.71,39.54c-1,30.11,6,44.69-6,45.66
	c-12,0.97-15,4.86-15-32.06s-0.26-48.55,1-52.34C365.31,355.06,366.11,354.42,367.07,353.97z"/>
<path class="st7" d="M324.12,274.07c0.03,2,12.75,47.81,12.75,47.81l9.82-26.67l3,12l23-9c0,0,1,0-5-6
	c-1.76-1.76-6.15-5.41-6.44-9.72c-1.31-19.98-4.53-33.93-4.53-33.93l-22.95,3.36L324.12,274.07z"/>
<path class="st7" d="M231.83,237.68c0,0-30.36,51.31-27.6,50.02c2.76-1.28,92.45-60.29,92.45-60.29h-42.78
	C253.91,227.42,238.73,224.85,231.83,237.68z"/>
<path class="st7" d="M265.76,228.23c0,0,3.57,19.71,0,31.84s-3.57,10.61-3.57,10.61l62.5-42.46
	C324.69,228.23,276.47,223.68,265.76,228.23z"/>
<ellipse class="st2" cx="357.69" cy="273.71" rx="15.5" ry="14"/>
<path class="st3" d="M355.57,278.78c0.74,0.42,1.53,0.69,2.31,0.84c2.78,0.52,5.59-0.59,6.93-2.99c1.72-3.08,0.38-7.11-3-9
	c-1.69-0.95-3.57-1.18-5.24-0.79c-1.67,0.39-3.14,1.4-4,2.94"/>
<polygon class="st7" points="312.29,245.66 328.29,307.66 358.29,242.66 "/>
<path class="st7" d="M355.69,302.21c0,0-6,7-9,12c-3.13,5.22-3,7-3,7l-6-5l-2-21l13-4L355.69,302.21z"/>
<path class="st8" d="M226.77,236.19c0,0-4.51-66.11,54.39-65.21s69.12,28.85,73.32,51.39s4.21,31.84,4.21,31.84l-67.5-13.5
	l-64.5,13.82L226.77,236.19z"/>
<path class="st9" d="M323.41,246.87c0,0-98.03-21.14-114.53-11.99c-16.5,9.15,1.15,31.3,7.81,29.33
	C243.69,256.21,280.68,240.63,323.41,246.87z"/>
<g>
	<ellipse cx="279.69" cy="278.71" rx="3.5" ry="9"/>
	<path d="M297.01,266.83l-23.94,1.76c-1.1,0.08-1.93,1.04-1.85,2.14l0,0c0.08,1.1,1.04,1.93,2.14,1.85l23.94-1.76
		c1.1-0.08,1.93-1.04,1.85-2.14l0,0C299.07,267.58,298.11,266.75,297.01,266.83z"/>
</g>
</svg>
